<mxfile host="Electron" agent="Mozilla/5.0 (Windows NT 10.0; Win64; x64) AppleWebKit/537.36 (KHTML, like Gecko) draw.io/25.0.2 Chrome/128.0.6613.186 Electron/32.2.5 Safari/537.36" version="25.0.2">
  <diagram name="Seite-1" id="Jm_MjjvINf7hYmUVN7ND">
    <mxGraphModel dx="3243" dy="1196" grid="1" gridSize="10" guides="1" tooltips="1" connect="1" arrows="1" fold="1" page="1" pageScale="1" pageWidth="1169" pageHeight="1654" math="0" shadow="0">
      <root>
        <mxCell id="0" />
        <mxCell id="1" parent="0" />
        <mxCell id="eQQXIZosBEmXn-Ig787i-1" value="Service A&lt;div&gt;Host A&lt;/div&gt;" style="label;whiteSpace=wrap;html=1;image=img/clipart/Gear_128x128.png;fillColor=#fff2cc;strokeColor=#d6b656;fontSize=14;" vertex="1" parent="1">
          <mxGeometry x="100" y="120" width="140" height="60" as="geometry" />
        </mxCell>
        <mxCell id="eQQXIZosBEmXn-Ig787i-2" value="Service B&lt;div&gt;&lt;div&gt;Host A&lt;/div&gt;&lt;/div&gt;" style="label;whiteSpace=wrap;html=1;image=img/clipart/Gear_128x128.png;fillColor=#fff2cc;strokeColor=#d6b656;fontSize=14;" vertex="1" parent="1">
          <mxGeometry x="290" y="120" width="140" height="60" as="geometry" />
        </mxCell>
        <mxCell id="eQQXIZosBEmXn-Ig787i-3" value="Service C&lt;div&gt;&lt;div&gt;Host B&lt;/div&gt;&lt;/div&gt;" style="label;whiteSpace=wrap;html=1;image=img/clipart/Gear_128x128.png;fillColor=#d5e8d4;strokeColor=#82b366;fontSize=14;" vertex="1" parent="1">
          <mxGeometry x="790" y="120" width="140" height="60" as="geometry" />
        </mxCell>
        <mxCell id="eQQXIZosBEmXn-Ig787i-12" style="edgeStyle=orthogonalEdgeStyle;rounded=0;orthogonalLoop=1;jettySize=auto;html=1;curved=1;" edge="1" parent="1" source="eQQXIZosBEmXn-Ig787i-4" target="eQQXIZosBEmXn-Ig787i-1">
          <mxGeometry relative="1" as="geometry" />
        </mxCell>
        <mxCell id="eQQXIZosBEmXn-Ig787i-4" value="Service D&lt;div&gt;&lt;div&gt;Host B&lt;/div&gt;&lt;/div&gt;" style="label;whiteSpace=wrap;html=1;image=img/clipart/Gear_128x128.png;fillColor=#d5e8d4;strokeColor=#82b366;fontSize=14;" vertex="1" parent="1">
          <mxGeometry x="100" y="390" width="140" height="60" as="geometry" />
        </mxCell>
        <mxCell id="eQQXIZosBEmXn-Ig787i-8" style="edgeStyle=orthogonalEdgeStyle;rounded=0;orthogonalLoop=1;jettySize=auto;html=1;curved=1;" edge="1" parent="1" source="eQQXIZosBEmXn-Ig787i-5" target="eQQXIZosBEmXn-Ig787i-2">
          <mxGeometry relative="1" as="geometry" />
        </mxCell>
        <mxCell id="eQQXIZosBEmXn-Ig787i-9" style="edgeStyle=orthogonalEdgeStyle;rounded=0;orthogonalLoop=1;jettySize=auto;html=1;entryX=0.25;entryY=1;entryDx=0;entryDy=0;" edge="1" parent="1" source="eQQXIZosBEmXn-Ig787i-5" target="eQQXIZosBEmXn-Ig787i-3">
          <mxGeometry relative="1" as="geometry" />
        </mxCell>
        <mxCell id="eQQXIZosBEmXn-Ig787i-5" value="Service E&lt;div&gt;&lt;div&gt;Host B&lt;/div&gt;&lt;/div&gt;" style="label;whiteSpace=wrap;html=1;image=img/clipart/Gear_128x128.png;fillColor=#d5e8d4;strokeColor=#82b366;fontSize=14;" vertex="1" parent="1">
          <mxGeometry x="290" y="390" width="140" height="60" as="geometry" />
        </mxCell>
        <mxCell id="eQQXIZosBEmXn-Ig787i-7" style="edgeStyle=orthogonalEdgeStyle;rounded=0;orthogonalLoop=1;jettySize=auto;html=1;entryX=0.5;entryY=1;entryDx=0;entryDy=0;curved=1;" edge="1" parent="1" source="eQQXIZosBEmXn-Ig787i-6" target="eQQXIZosBEmXn-Ig787i-5">
          <mxGeometry relative="1" as="geometry" />
        </mxCell>
        <mxCell id="eQQXIZosBEmXn-Ig787i-10" style="edgeStyle=orthogonalEdgeStyle;rounded=0;orthogonalLoop=1;jettySize=auto;html=1;entryX=0.5;entryY=1;entryDx=0;entryDy=0;" edge="1" parent="1" source="eQQXIZosBEmXn-Ig787i-6" target="eQQXIZosBEmXn-Ig787i-3">
          <mxGeometry relative="1" as="geometry" />
        </mxCell>
        <mxCell id="eQQXIZosBEmXn-Ig787i-11" style="edgeStyle=orthogonalEdgeStyle;rounded=0;orthogonalLoop=1;jettySize=auto;html=1;entryX=0.5;entryY=1;entryDx=0;entryDy=0;" edge="1" parent="1" source="eQQXIZosBEmXn-Ig787i-6" target="eQQXIZosBEmXn-Ig787i-4">
          <mxGeometry relative="1" as="geometry">
            <mxPoint x="160" y="430" as="targetPoint" />
          </mxGeometry>
        </mxCell>
        <mxCell id="eQQXIZosBEmXn-Ig787i-6" value="Service F&lt;div&gt;&lt;div&gt;Host C&lt;/div&gt;&lt;/div&gt;" style="label;whiteSpace=wrap;html=1;image=img/clipart/Gear_128x128.png;fillColor=#dae8fc;strokeColor=#6c8ebf;fontSize=14;" vertex="1" parent="1">
          <mxGeometry x="290" y="590" width="140" height="60" as="geometry" />
        </mxCell>
        <mxCell id="eQQXIZosBEmXn-Ig787i-13" value="&lt;b&gt;&lt;font style=&quot;font-size: 14px;&quot;&gt;EXECUTION FAILURE OPTIONS.&lt;/font&gt;&lt;/b&gt;&lt;div&gt;&lt;font style=&quot;font-size: 14px;&quot;&gt;(none)&lt;/font&gt;&lt;/div&gt;&lt;div&gt;&lt;font style=&quot;font-size: 14px;&quot;&gt;&lt;br&gt;&lt;/font&gt;&lt;/div&gt;&lt;div&gt;&lt;b&gt;&lt;font style=&quot;font-size: 14px;&quot;&gt;NOTIFICATION FAILURE OPTIONS:&lt;/font&gt;&lt;/b&gt;&lt;/div&gt;&lt;div&gt;&lt;font style=&quot;font-size: 14px;&quot;&gt;warning, unknown, critical&lt;/font&gt;&lt;/div&gt;" style="rounded=0;whiteSpace=wrap;html=1;fontStyle=0;align=left;fillColor=#f5f5f5;fontColor=#333333;strokeColor=#666666;" vertex="1" parent="1">
          <mxGeometry x="370" y="470" width="240" height="100" as="geometry" />
        </mxCell>
        <mxCell id="eQQXIZosBEmXn-Ig787i-14" value="&lt;b&gt;&lt;font style=&quot;font-size: 14px;&quot;&gt;EXECUTION FAILURE OPTIONS.&lt;/font&gt;&lt;/b&gt;&lt;div&gt;&lt;span style=&quot;font-size: 14px;&quot;&gt;warning&lt;/span&gt;&lt;/div&gt;&lt;div&gt;&lt;font style=&quot;font-size: 14px;&quot;&gt;&lt;br&gt;&lt;/font&gt;&lt;/div&gt;&lt;div&gt;&lt;b&gt;&lt;font style=&quot;font-size: 14px;&quot;&gt;NOTIFICATION FAILURE OPTIONS:&lt;/font&gt;&lt;/b&gt;&lt;/div&gt;&lt;div&gt;&lt;font style=&quot;font-size: 14px;&quot;&gt;critical&lt;/font&gt;&lt;/div&gt;" style="rounded=0;whiteSpace=wrap;html=1;fontStyle=0;align=left;fillColor=#f5f5f5;fontColor=#333333;strokeColor=#666666;" vertex="1" parent="1">
          <mxGeometry x="870" y="470" width="240" height="100" as="geometry" />
        </mxCell>
        <mxCell id="eQQXIZosBEmXn-Ig787i-15" value="&lt;b&gt;&lt;font style=&quot;font-size: 14px;&quot;&gt;EXECUTION FAILURE OPTIONS.&lt;/font&gt;&lt;/b&gt;&lt;div&gt;&lt;span style=&quot;font-size: 14px;&quot;&gt;(none)&lt;/span&gt;&lt;/div&gt;&lt;div&gt;&lt;font style=&quot;font-size: 14px;&quot;&gt;&lt;br&gt;&lt;/font&gt;&lt;/div&gt;&lt;div&gt;&lt;b&gt;&lt;font style=&quot;font-size: 14px;&quot;&gt;NOTIFICATION FAILURE OPTIONS:&lt;/font&gt;&lt;/b&gt;&lt;/div&gt;&lt;div&gt;&lt;span style=&quot;font-size: 14px;&quot;&gt;warning, unknown, critical&lt;/span&gt;&lt;/div&gt;" style="rounded=0;whiteSpace=wrap;html=1;fontStyle=0;align=left;fillColor=#f5f5f5;fontColor=#333333;strokeColor=#666666;" vertex="1" parent="1">
          <mxGeometry x="560" y="310" width="240" height="100" as="geometry" />
        </mxCell>
        <mxCell id="eQQXIZosBEmXn-Ig787i-16" value="&lt;b&gt;&lt;font style=&quot;font-size: 14px;&quot;&gt;EXECUTION FAILURE OPTIONS.&lt;/font&gt;&lt;/b&gt;&lt;div&gt;&lt;span style=&quot;font-size: 14px;&quot;&gt;warning, unknown&lt;/span&gt;&lt;/div&gt;&lt;div&gt;&lt;b&gt;&lt;font style=&quot;font-size: 14px;&quot;&gt;NOTIFICATION FAILURE OPTIONS:&lt;/font&gt;&lt;/b&gt;&lt;/div&gt;&lt;div&gt;&lt;span style=&quot;font-size: 14px;&quot;&gt;critical&lt;/span&gt;&lt;/div&gt;" style="rounded=0;whiteSpace=wrap;html=1;fontStyle=0;align=left;fillColor=#f5f5f5;fontColor=#333333;strokeColor=#666666;" vertex="1" parent="1">
          <mxGeometry x="370" y="200" width="240" height="100" as="geometry" />
        </mxCell>
        <mxCell id="eQQXIZosBEmXn-Ig787i-17" value="&lt;b&gt;&lt;font style=&quot;font-size: 14px;&quot;&gt;EXECUTION FAILURE OPTIONS.&lt;/font&gt;&lt;/b&gt;&lt;div&gt;&lt;span style=&quot;background-color: initial;&quot;&gt;&lt;font style=&quot;font-size: 14px;&quot;&gt;unknown&lt;/font&gt;&lt;/span&gt;&lt;/div&gt;&lt;div&gt;&lt;span style=&quot;background-color: initial;&quot;&gt;&lt;font style=&quot;font-size: 14px;&quot;&gt;&lt;b&gt;NOTIFICATION FAILURE OPTIONS:&lt;/b&gt;&lt;/font&gt;&lt;/span&gt;&lt;br&gt;&lt;/div&gt;&lt;div&gt;&lt;span style=&quot;font-size: 14px;&quot;&gt;(none)&lt;/span&gt;&lt;/div&gt;" style="rounded=0;whiteSpace=wrap;html=1;fontStyle=0;align=left;fillColor=#f5f5f5;fontColor=#333333;strokeColor=#666666;" vertex="1" parent="1">
          <mxGeometry x="-80" y="210" width="240" height="100" as="geometry" />
        </mxCell>
        <mxCell id="eQQXIZosBEmXn-Ig787i-18" value="&lt;b&gt;&lt;font style=&quot;font-size: 14px;&quot;&gt;EXECUTION FAILURE OPTIONS.&lt;/font&gt;&lt;/b&gt;&lt;div&gt;&lt;span style=&quot;background-color: initial;&quot;&gt;&lt;font style=&quot;font-size: 14px;&quot;&gt;ok&lt;/font&gt;&lt;/span&gt;&lt;/div&gt;&lt;div&gt;&lt;span style=&quot;background-color: initial;&quot;&gt;&lt;font style=&quot;font-size: 14px;&quot;&gt;&lt;b&gt;NOTIFICATION FAILURE OPTIONS:&lt;/b&gt;&lt;/font&gt;&lt;/span&gt;&lt;br&gt;&lt;/div&gt;&lt;div&gt;&lt;span style=&quot;font-size: 14px;&quot;&gt;warning, unknown&lt;/span&gt;&lt;/div&gt;" style="rounded=0;whiteSpace=wrap;html=1;fontStyle=0;align=left;fillColor=#f5f5f5;fontColor=#333333;strokeColor=#666666;" vertex="1" parent="1">
          <mxGeometry x="-80" y="470" width="240" height="100" as="geometry" />
        </mxCell>
        <mxCell id="eQQXIZosBEmXn-Ig787i-19" value="&lt;font style=&quot;font-size: 30px;&quot;&gt;Service Dependencies&lt;/font&gt;" style="text;html=1;align=center;verticalAlign=middle;resizable=0;points=[];autosize=1;strokeColor=none;fillColor=none;" vertex="1" parent="1">
          <mxGeometry x="355" y="35" width="320" height="50" as="geometry" />
        </mxCell>
      </root>
    </mxGraphModel>
  </diagram>
</mxfile>
